<svg width="455" height="84" viewBox="0 0 455 84" fill="none" xmlns="http://www.w3.org/2000/svg">
<path d="M34.7992 33.828C35.4832 33.18 35.9152 32.64 35.9152 32.424C35.8072 30.948 34.4392 28.176 31.5592 29.148C29.7232 32.388 24.7912 35.808 24.6832 35.952C24.2512 36.636 24.1792 37.14 24.3232 37.5C24.1432 37.968 24.2512 38.508 24.8992 39.192C25.0432 39.336 30.5152 41.748 32.9632 44.592C35.9512 44.988 36.7792 42 36.5992 40.524C36.5632 40.308 35.9152 39.768 34.9432 39.192C38.3272 38.904 43.0432 38.472 43.2952 38.508C45.2392 37.896 47.7592 35.628 48.0832 34.296C46.0312 34.152 39.0832 33.72 34.7992 33.828ZM63.5635 26.088C62.2675 25.188 60.6115 25.44 59.7115 25.692C59.5315 25.764 59.4235 25.872 59.3155 25.98C56.8675 25.98 54.6715 26.052 52.8715 26.304C50.9275 26.592 50.9995 32.496 54.0235 32.424C54.6355 32.388 56.4715 32.28 59.7115 32.1C60.0355 39.66 59.9995 51.144 60.1795 52.26C60.3235 52.224 60.6475 51 60.6475 51L60.9715 51.9L61.4395 51.18H61.7275C61.7275 51.18 61.9435 50.532 62.0515 50.424C62.3035 50.1 62.4835 50.388 62.4835 50.388L63.0595 49.092L63.3475 49.128L64.1395 47.364C64.1395 47.364 65.1475 39.084 65.3635 31.812C66.8755 31.74 68.5675 31.632 70.4035 31.56C73.5355 30.552 74.6875 28.14 74.8315 26.808C70.9795 26.52 67.1275 26.232 63.5635 26.088ZM92.6067 27.276C92.0307 25.584 88.3947 25.584 86.8467 26.268C86.5227 28.32 86.1987 33.972 86.4507 39.66C84.5427 39.48 82.2747 39.48 80.2947 39.732C80.4387 37.104 80.5827 34.152 80.6547 31.38C80.8707 24.756 76.6227 25.44 75.0387 25.944C74.6427 26.052 74.4987 26.376 74.5347 26.52C75.3987 30.696 75.4347 50.748 75.6867 52.224C75.8307 52.188 76.1547 51.792 76.1547 51.792L76.4427 50.82L76.7667 51.036L77.3787 50.172L78.4227 49.524L78.8907 48.156L79.3227 48.048L79.5027 47.112L79.7547 47.436C79.7547 47.436 79.8267 46.428 79.9347 44.808C81.9867 44.448 84.7947 43.908 86.2347 43.908C86.3787 43.872 86.5587 43.8 86.7027 43.692C86.9907 46.788 87.4947 49.596 88.2867 51.612C88.3587 51.612 88.4667 51.612 88.5387 51.576C88.6827 51.54 88.7907 51 88.7907 51L89.2227 50.964L89.4027 50.64L89.7987 50.964L90.3027 48.768L90.5547 48.84L90.8067 48.876L91.0227 47.76L91.2387 47.796L91.3827 47.436C91.3827 47.436 91.3107 40.524 92.2827 32.856C92.6787 29.796 92.9307 28.284 92.6067 27.276ZM103.408 44.628C103.552 43.728 103.768 42.252 103.948 40.344C105.748 39.912 107.728 39.336 107.944 39.336C108.448 39.156 109.744 38.544 109.744 38.544L109.996 38.112L111.292 37.788L111.256 37.428L112.444 36.672L111.976 36.636L113.092 36.024L113.236 35.16C113.236 35.16 113.524 34.62 113.524 34.404C111.58 34.368 107.656 34.584 104.488 34.98C104.56 34.116 104.632 33.252 104.668 32.316C104.668 32.028 104.704 31.74 104.704 31.452C107.872 30.948 111.544 30.336 111.724 30.336C111.94 30.264 113.38 29.652 113.38 29.652L113.416 29.22L114.604 28.608L113.884 28.572C113.884 28.572 114.604 28.068 114.712 27.96C115.18 27.456 115.828 27.168 115.828 27.168C115.828 27.168 115.792 26.484 115.864 26.232C113.524 26.196 105.28 26.016 101.464 26.52C100.024 26.376 98.6196 26.952 98.6196 26.952C99.2676 29.256 99.0876 40.092 99.0876 46.248C98.7636 46.356 98.5116 46.464 98.3316 46.572C96.5316 47.508 98.5836 52.224 99.6996 51.684C106.936 48.156 114.568 46.464 114.928 46.464C115.396 46.284 115.576 45.78 116.188 45.312C116.764 44.844 117.772 44.448 117.772 44.448L116.764 44.34L118.132 43.692L118.312 43.26C118.312 43.26 118.996 42.612 118.996 42.36C114.856 41.568 108.268 43.044 103.408 44.628ZM134.693 25.764C133.505 25.764 121.517 26.664 121.301 30.588C121.301 30.588 120.905 30.444 120.725 33.576C120.365 39.804 135.989 40.812 135.809 43.944C135.701 45.672 122.165 49.884 122.813 38.76L122.633 38.328L122.057 38.976C122.057 38.976 121.661 41.136 121.625 42.9C121.589 40.812 121.733 39.372 121.733 39.372C121.733 39.372 121.121 41.172 120.977 43.98C120.797 46.788 124.037 51.936 129.005 51.936C133.973 51.936 138.437 50.496 138.833 43.836C139.337 35.7 125.909 33.576 125.981 32.928C125.981 32.676 131.669 30.876 135.917 30.876C137.861 27.528 134.693 25.764 134.693 25.764ZM162.187 27.276C161.611 25.584 157.975 25.584 156.427 26.268C156.103 28.32 155.779 33.972 156.031 39.66C154.123 39.48 151.855 39.48 149.875 39.732C150.019 37.104 150.163 34.152 150.235 31.38C150.451 24.756 146.203 25.44 144.619 25.944C144.223 26.052 144.079 26.376 144.115 26.52C144.979 30.696 145.015 50.748 145.267 52.224C145.411 52.188 145.735 51.792 145.735 51.792L146.023 50.82L146.347 51.036L146.959 50.172L148.003 49.524L148.471 48.156L148.903 48.048L149.083 47.112L149.335 47.436C149.335 47.436 149.407 46.428 149.515 44.808C151.567 44.448 154.375 43.908 155.815 43.908C155.959 43.872 156.139 43.8 156.283 43.692C156.571 46.788 157.075 49.596 157.867 51.612C157.939 51.612 158.047 51.612 158.119 51.576C158.263 51.54 158.371 51 158.371 51L158.803 50.964L158.983 50.64L159.379 50.964L159.883 48.768L160.135 48.84L160.387 48.876L160.603 47.76L160.819 47.796L160.963 47.436C160.963 47.436 160.891 40.524 161.863 32.856C162.259 29.796 162.511 28.284 162.187 27.276ZM168.301 34.944C168.373 38.796 171.037 44.232 175.717 44.304C179.893 44.376 182.557 39.876 182.629 34.548C182.701 28.284 179.533 26.124 177.697 26.916C177.337 27.06 177.265 27.312 177.265 27.42C177.265 27.492 177.445 27.636 177.481 27.672C177.553 27.816 177.193 27.924 177.193 27.924L177.337 27.96C177.337 27.96 178.453 29.328 178.453 34.332C178.453 38.508 175.825 40.056 175.141 39.984C174.745 39.948 171.469 38.472 173.881 28.5C174.061 27.744 171.217 26.052 169.741 26.736C169.345 26.916 168.193 29.94 168.301 34.944ZM169.093 46.68C172.729 44.556 180.937 45.276 182.017 47.184C182.053 47.22 181.837 47.148 181.837 47.148L182.305 47.724L182.017 47.796C182.017 47.796 182.593 48.552 182.521 48.804C182.413 49.056 182.125 50.244 182.125 50.244L181.801 50.064C178.057 49.56 174.133 50.568 171.181 51.504C168.769 52.296 168.085 48.948 169.093 46.68ZM209.453 42.648C209.201 38.076 205.961 35.88 202.073 34.944C204.881 33.432 205.205 31.776 205.205 31.776C205.205 30.048 204.917 27.852 203.729 26.988C201.281 26.268 197.105 26.484 193.793 26.844C192.245 25.8 189.617 26.916 189.617 26.916C189.689 27.024 189.725 27.168 189.761 27.348C189.113 27.456 188.717 27.528 188.717 27.528C188.213 28.392 188.753 30.3 189.329 30.732C189.437 30.804 189.725 30.876 190.157 30.876C190.229 31.92 190.301 33.108 190.373 34.368C189.437 34.62 188.825 34.764 188.825 34.764L188.861 35.16C188.321 35.268 188.033 35.376 187.961 35.448C186.773 38.184 188.681 39.336 188.681 39.336C189.329 39.3 189.941 39.264 190.517 39.264C190.589 41.208 190.625 43.188 190.661 45.024C189.185 44.664 187.961 44.196 187.133 43.692C187.529 46.824 188.969 48.552 190.769 49.524C190.805 51.036 190.841 52.044 190.913 52.368C191.057 52.332 191.273 51.792 191.453 51.684C191.705 51.54 191.633 51.324 191.777 50.568C191.885 50.928 192.137 51.252 192.317 50.964C192.425 50.748 192.569 50.532 192.713 50.28C194.945 50.856 197.285 50.676 198.581 50.676C204.701 50.64 209.777 48.336 209.453 42.648ZM194.981 30.588C197.429 30.372 199.841 30.192 200.273 30.444C199.193 31.344 197.105 32.208 195.017 32.928C195.017 32.172 194.981 31.416 194.981 30.588ZM204.989 42.648C201.857 44.916 197.933 45.6 194.477 45.492C194.657 44.16 194.873 42.108 194.981 39.192C205.529 39.444 204.989 42.648 204.989 42.648ZM232.856 27.276C232.28 25.584 228.644 25.584 227.096 26.268C226.772 28.32 226.448 33.972 226.7 39.66C224.792 39.48 222.524 39.48 220.544 39.732C220.688 37.104 220.832 34.152 220.904 31.38C221.12 24.756 216.872 25.44 215.288 25.944C214.892 26.052 214.748 26.376 214.784 26.52C215.648 30.696 215.684 50.748 215.936 52.224C216.08 52.188 216.404 51.792 216.404 51.792L216.692 50.82L217.016 51.036L217.628 50.172L218.672 49.524L219.14 48.156L219.572 48.048L219.752 47.112L220.004 47.436C220.004 47.436 220.076 46.428 220.184 44.808C222.236 44.448 225.044 43.908 226.484 43.908C226.628 43.872 226.808 43.8 226.952 43.692C227.24 46.788 227.744 49.596 228.536 51.612C228.608 51.612 228.716 51.612 228.788 51.576C228.932 51.54 229.04 51 229.04 51L229.472 50.964L229.652 50.64L230.048 50.964L230.552 48.768L230.804 48.84L231.056 48.876L231.272 47.76L231.488 47.796L231.632 47.436C231.632 47.436 231.56 40.524 232.532 32.856C232.928 29.796 233.18 28.284 232.856 27.276ZM237.864 42.828C237.828 44.376 238.512 45.672 240.168 45.384C243.264 44.808 247.476 44.34 251.184 45.384L251.508 45.6C251.508 45.6 251.976 44.484 252.084 44.196C252.264 44.52 252.408 44.844 252.408 44.844L252.804 44.52L253.128 44.7L253.524 44.952L253.776 44.556C253.776 44.556 254.316 45.132 254.352 45.132C251.508 37.572 250.428 31.092 250.104 28.788C249.852 27.132 248.52 26.664 247.116 26.7C246.288 26.124 244.632 26.016 241.68 26.448C240.888 33 239.124 38.148 237.432 42.324C237.648 42.324 237.756 42.576 237.864 42.828ZM243.66 39.552C244.416 38.076 245.136 36.528 245.784 34.872C246.432 36.6 247.152 38.436 247.944 40.272C246.648 39.912 245.136 39.624 243.66 39.552ZM253.848 48.876L254.172 48.804L253.668 48.192C253.668 48.192 253.92 48.3 253.848 48.228C252.732 46.284 241.356 45.312 237.576 47.508C236.532 49.848 237.252 53.304 239.772 52.476C242.76 51.504 249.78 50.676 253.632 51.216L253.956 51.396C253.956 51.396 254.28 50.172 254.352 49.92C254.424 49.668 253.848 48.876 253.848 48.876ZM282.112 32.244C282.076 29.076 282.22 27.708 281.752 26.736C280.924 25.08 277.324 25.584 275.884 26.484C275.884 26.7 275.884 26.952 275.92 27.276C274.948 29.22 272.392 34.548 270.412 39.912C269.656 36.996 268.36 32.352 266.92 27.384C266.416 25.728 264.292 25.404 262.348 25.8C260.872 25.44 259.432 25.944 259.432 25.944C259.504 26.232 259.54 26.592 259.576 27.024C259.576 27.024 259.54 27.06 259.504 27.06C259.54 27.096 259.576 27.132 259.576 27.168C260.08 32.532 259.324 47.112 258.892 51.54C259.108 51.54 259.324 50.748 259.612 50.604C259.936 50.46 260.512 50.928 260.512 50.928L260.8 50.352L261.736 50.064L263.104 47.652L263.572 47.724C263.572 47.724 264.256 43.62 264.832 38.22C266.344 41.82 267.748 45.384 268.612 47.364C268.936 50.604 272.32 49.38 272.572 48.624C273.724 45.528 275.56 40.344 276.784 36.492C277.54 42.072 278.872 48.408 280.816 51.936C280.924 51.9 280.888 51.576 280.996 51.54C281.176 51.432 281.572 51.504 281.572 51.504L281.644 50.676L282.112 50.604L282.4 49.524L282.544 48.624L282.904 48.552L283.264 47.256C283.264 47.256 282.22 40.2 282.112 32.244ZM289.593 27.096C288.225 28.5 289.449 32.244 290.637 32.784C291.537 32.496 292.437 32.316 293.337 32.136C293.589 35.556 293.733 40.524 293.841 44.7C291.285 44.016 289.521 42.612 289.521 41.64C289.521 40.344 288.909 41.604 288.909 41.604C288.909 46.968 291.573 49.2 293.985 50.1C294.021 51.252 294.057 52.08 294.093 52.332C294.165 52.332 294.417 51.9 294.417 51.9L294.813 52.008L295.209 51.036L295.857 51.072L296.073 50.604C296.433 50.64 296.757 50.676 297.081 50.676C300.429 50.676 310.977 49.272 311.013 39.948C311.121 22.812 290.925 25.62 289.593 27.096ZM297.045 45.096C296.973 45.096 296.901 45.096 296.865 45.096L297.189 40.524C297.189 40.524 297.153 42.936 297.189 45.096C297.117 45.096 297.081 45.096 297.045 45.096ZM307.989 38.688C307.809 41.424 302.373 44.7 297.837 45.06C297.981 42.108 298.197 36.42 298.269 32.172C303.813 33.036 308.133 36.384 307.989 38.688ZM332.555 27.276C331.979 25.584 328.343 25.584 326.795 26.268C326.471 28.32 326.147 33.972 326.399 39.66C324.491 39.48 322.223 39.48 320.243 39.732C320.387 37.104 320.531 34.152 320.603 31.38C320.819 24.756 316.571 25.44 314.987 25.944C314.591 26.052 314.447 26.376 314.483 26.52C315.347 30.696 315.383 50.748 315.635 52.224C315.779 52.188 316.103 51.792 316.103 51.792L316.391 50.82L316.715 51.036L317.327 50.172L318.371 49.524L318.839 48.156L319.271 48.048L319.451 47.112L319.703 47.436C319.703 47.436 319.775 46.428 319.883 44.808C321.935 44.448 324.743 43.908 326.183 43.908C326.327 43.872 326.507 43.8 326.651 43.692C326.939 46.788 327.443 49.596 328.235 51.612C328.307 51.612 328.415 51.612 328.487 51.576C328.631 51.54 328.739 51 328.739 51L329.171 50.964L329.351 50.64L329.747 50.964L330.251 48.768L330.503 48.84L330.755 48.876L330.971 47.76L331.187 47.796L331.331 47.436C331.331 47.436 331.259 40.524 332.231 32.856C332.627 29.796 332.879 28.284 332.555 27.276ZM337.563 42.828C337.527 44.376 338.211 45.672 339.867 45.384C342.963 44.808 347.175 44.34 350.883 45.384L351.207 45.6C351.207 45.6 351.675 44.484 351.783 44.196C351.963 44.52 352.107 44.844 352.107 44.844L352.503 44.52L352.827 44.7L353.223 44.952L353.475 44.556C353.475 44.556 354.015 45.132 354.051 45.132C351.207 37.572 350.127 31.092 349.803 28.788C349.551 27.132 348.219 26.664 346.815 26.7C345.987 26.124 344.331 26.016 341.379 26.448C340.587 33 338.823 38.148 337.131 42.324C337.347 42.324 337.455 42.576 337.563 42.828ZM343.359 39.552C344.115 38.076 344.835 36.528 345.483 34.872C346.131 36.6 346.851 38.436 347.643 40.272C346.347 39.912 344.835 39.624 343.359 39.552ZM353.547 48.876L353.871 48.804L353.367 48.192C353.367 48.192 353.619 48.3 353.547 48.228C352.431 46.284 341.055 45.312 337.275 47.508C336.231 49.848 336.951 53.304 339.471 52.476C342.459 51.504 349.479 50.676 353.331 51.216L353.655 51.396C353.655 51.396 353.979 50.172 354.051 49.92C354.123 49.668 353.547 48.876 353.547 48.876ZM376.929 40.848C377.181 39.372 376.569 36.24 375.093 36.06C371.961 35.628 365.157 36.78 362.745 37.068C362.781 37.212 362.925 37.284 363.177 37.356C363.285 37.356 366.345 36.888 368.469 36.996C365.229 37.464 363.573 37.788 363.681 37.896C364.581 39.048 365.877 40.488 367.353 40.92C367.605 40.92 372.033 41.388 374.661 41.568C373.257 43.44 370.701 45.42 367.677 45.42C363.789 45.42 361.017 42.216 361.125 39.948C361.269 35.484 366.021 30.192 371.745 33.108C372.897 32.64 373.725 30.156 373.761 28.572C373.869 23.964 358.713 25.62 358.245 39.408C357.993 47.292 363.069 50.892 367.929 50.892C373.617 50.892 377.505 46.428 376.929 40.848ZM387.282 44.628C387.426 43.728 387.642 42.252 387.822 40.344C389.622 39.912 391.602 39.336 391.818 39.336C392.322 39.156 393.618 38.544 393.618 38.544L393.87 38.112L395.166 37.788L395.13 37.428L396.318 36.672L395.85 36.636L396.966 36.024L397.11 35.16C397.11 35.16 397.398 34.62 397.398 34.404C395.454 34.368 391.53 34.584 388.362 34.98C388.434 34.116 388.506 33.252 388.542 32.316C388.542 32.028 388.578 31.74 388.578 31.452C391.746 30.948 395.418 30.336 395.598 30.336C395.814 30.264 397.254 29.652 397.254 29.652L397.29 29.22L398.478 28.608L397.758 28.572C397.758 28.572 398.478 28.068 398.586 27.96C399.054 27.456 399.702 27.168 399.702 27.168C399.702 27.168 399.666 26.484 399.738 26.232C397.398 26.196 389.154 26.016 385.338 26.52C383.898 26.376 382.494 26.952 382.494 26.952C383.142 29.256 382.962 40.092 382.962 46.248C382.638 46.356 382.386 46.464 382.206 46.572C380.406 47.508 382.458 52.224 383.574 51.684C390.81 48.156 398.442 46.464 398.802 46.464C399.27 46.284 399.45 45.78 400.062 45.312C400.638 44.844 401.646 44.448 401.646 44.448L400.638 44.34L402.006 43.692L402.186 43.26C402.186 43.26 402.87 42.612 402.87 42.36C398.73 41.568 392.142 43.044 387.282 44.628ZM429.937 36.96C430.081 36.6 430.009 36.096 429.613 35.412C429.505 35.268 424.573 31.848 422.701 28.608C419.821 27.636 418.453 30.408 418.345 31.884C418.345 32.1 418.849 32.712 419.641 33.432C416.221 33.684 411.217 34.152 411.001 34.152C409.021 34.728 406.537 37.032 406.177 38.328C408.157 38.508 414.745 38.868 419.065 38.832C418.237 39.336 417.697 39.768 417.661 39.984C417.481 41.46 418.309 44.448 421.297 44.052C423.745 41.208 429.253 38.796 429.361 38.652C430.009 37.968 430.117 37.428 429.937 36.96Z" fill="black"/>
</svg>
